<svg width="1080" height="1080" viewBox="0 0 1080 1080" fill="none" xmlns="http://www.w3.org/2000/svg">
<rect width="1080" height="1080" fill="url(#paint0_linear_1_4)"/>
<path d="M412.848 426.97C471.7 445.682 512.746 460.47 535.986 471.335C550.171 477.372 557.263 489.293 557.263 507.1V824.904C557.263 848.143 554.094 864.29 547.756 873.344C539.004 885.718 522.555 891.905 498.411 891.905C453.139 891.905 413.753 875.306 380.253 842.107C346.752 808.606 330.001 771.333 330.001 730.287C330.001 705.237 337.245 682.601 351.732 662.38C368.633 638.236 390.816 625.71 418.28 624.805C437.898 623.9 449.518 627.521 453.139 635.67C455.856 655.891 457.214 668.265 457.214 672.793C456.308 687.883 449.216 695.428 435.936 695.428C413.602 695.428 401.983 706.142 401.077 727.571C400.172 745.377 406.812 761.524 420.997 776.011C435.182 790.196 448.159 797.289 459.93 797.289C466.872 797.289 470.342 794.12 470.342 787.782V551.466C470.342 540.6 440.011 525.51 379.347 506.194C318.985 486.577 288.805 468.166 288.805 450.963C289.71 444.022 294.237 436.477 302.386 428.328C307.517 422.292 332.718 397.242 377.989 353.178C423.562 309.113 449.518 285.271 455.856 281.649C467.324 274.406 474.417 270.784 477.133 270.784C485.282 270.784 496.6 286.025 511.086 316.508C525.875 346.689 543.531 361.779 564.054 361.779C580.05 361.779 598.762 346.689 620.19 316.508C623.51 337.634 625.17 354.536 625.17 367.212C625.17 407.956 600.271 429.233 550.472 431.044C517.575 431.949 489.96 414.143 467.626 377.624L412.848 426.97Z" fill="white"/>
<path d="M698.648 140.129L710.755 139.712C713.538 139.712 714.929 141.173 714.929 144.095C714.929 145.765 713.746 146.809 711.381 147.226C708.319 147.922 705.467 150.148 702.823 153.906C696.978 161.003 689.464 171.509 680.28 185.424C700.318 216.873 711.172 234.546 712.842 238.442C714.651 242.199 715.555 244.913 715.555 246.583C715.555 249.366 714.373 250.757 712.007 250.757C707.693 250.757 702.057 246.722 695.1 238.651C688.142 230.58 678.958 217.778 667.547 200.244C665.877 202.888 663.999 205.81 661.911 209.011C659.824 212.072 658.224 214.507 657.111 216.316C655.997 217.986 654.745 219.865 653.353 221.952C651.962 224.04 650.918 225.709 650.222 226.962C649.527 228.214 648.831 229.467 648.135 230.719C647.022 232.945 646.465 234.615 646.465 235.728C646.465 237.677 649.04 239.068 654.188 239.903V247H619.956V239.903C623.018 239.625 625.035 239.207 626.01 238.651C628.514 237.259 631.924 233.641 636.237 227.797C640.551 221.813 648.692 209.707 660.659 191.477C657.458 186.329 654.188 181.041 650.849 175.614C647.509 170.048 645.143 166.151 643.752 163.925C642.36 161.698 640.83 159.402 639.16 157.037C637.49 154.532 636.029 152.932 634.776 152.236C631.993 150.566 628.723 149.522 624.966 149.105L624.548 142.217C629.419 141.66 634.22 140.686 638.951 139.294C643.682 137.903 646.465 137.207 647.3 137.207C648.274 137.207 649.04 137.277 649.596 137.416C650.292 137.555 650.918 137.903 651.475 138.46C652.171 139.016 652.797 139.642 653.353 140.338C653.91 140.895 654.606 141.799 655.441 143.052C656.276 144.304 657.041 145.556 657.737 146.809C658.433 148.061 659.337 149.801 660.45 152.027C661.703 154.114 662.885 156.202 663.999 158.289C665.112 160.376 666.573 163.09 668.382 166.43C670.191 169.63 671.931 172.761 673.6 175.822C684.315 160.794 689.673 152.584 689.673 151.192C689.673 149.661 689.255 148.548 688.42 147.852C687.585 147.018 686.681 146.6 685.707 146.6C683.202 146.6 681.95 145.487 681.95 143.26C681.95 142.286 682.437 141.451 683.411 140.756C684.385 140.06 685.498 139.712 686.75 139.712L698.648 140.129ZM739.586 240.947L746.891 234.894L770.687 216.316C782.097 207.411 790.586 199.757 796.152 193.356C801.857 186.816 804.71 180.275 804.71 173.735C804.71 159.82 797.056 152.862 781.749 152.862C777.714 152.862 773.957 153.349 770.478 154.323C767.138 155.297 761.363 157.663 753.153 161.42L750.231 155.367L775.696 138.251C778.897 137.416 782.654 136.998 786.968 136.998C797.126 136.998 806.102 139.503 813.894 144.513C821.826 149.383 825.792 157.315 825.792 168.308C825.792 174.431 823.565 180.832 819.112 187.511C814.66 194.052 809.859 199.479 804.71 203.793C799.7 208.106 793.578 212.768 786.342 217.778L775.488 225.083C771.73 227.588 768.947 229.606 767.138 231.136C777.436 231.415 787.385 231.554 796.987 231.554C806.728 231.554 817.721 230.928 829.967 229.675L832.471 231.971C831.915 236.703 831.636 241.712 831.636 247H742.508L739.586 240.947Z" fill="white"/>
<defs>
<linearGradient id="paint0_linear_1_4" x1="1080" y1="3.21865e-05" x2="-3.21865e-05" y2="1080" gradientUnits="userSpaceOnUse">
<stop stop-color="#8E44AD"/>
<stop offset="1" stop-color="#C0392B"/>
</linearGradient>
</defs>
</svg>
